{
  "asset": {
    "version": "2.0",
    "generator": "THREE.GLTFExporter r170"
  },
  "scenes": [
    {
      "name": "Scene",
      "nodes": [
        13
      ]
    }
  ],
  "scene": 0,
  "nodes": [
    {
      "matrix": [
        0.02154894359409809,
        0,
        0,
        0,
        0,
        0.033653290668971755,
        0.015462419646492642,
        0,
        0,
        -0.00899673737236004,
        0.019581011561351024,
        0,
        0.0010523621458560228,
        0.4723001718521118,
        -0.02056700736284256,
        1
      ],
      "name": "Kostka",
      "extras": {
        "name": "Kostka"
      }
    },
    {
      "matrix": [
        1,
        0,
        0,
        0,
        0,
        1,
        0,
        0,
        0,
        0,
        1,
        0,
        0,
        0.48084449768066406,
        0.018244199454784393,
        1
      ],
      "name": "Pusty001",
      "extras": {
        "name": "Pusty.001"
      }
    },
    {
      "name": "Kostka_1",
      "extras": {
        "name": "Kostka_1"
      },
      "mesh": 0
    },
    {
      "name": "Kostka_2",
      "extras": {
        "name": "Kostka_2"
      },
      "mesh": 1
    },
    {
      "name": "Kostka_3",
      "extras": {
        "name": "Kostka_3"
      },
      "mesh": 2
    },
    {
      "name": "Kostka_4",
      "extras": {
        "name": "Kostka_4"
      },
      "mesh": 3
    },
    {
      "name": "Kostka_5",
      "extras": {
        "name": "Kostka_5"
      },
      "mesh": 4
    },
    {
      "name": "Kostka_6",
      "extras": {
        "name": "Kostka_6"
      },
      "mesh": 5
    },
    {
      "matrix": [
        0.5,
        0,
        0,
        0,
        0,
        0.30000001192092896,
        0,
        0,
        0,
        0,
        0.05000000074505806,
        0,
        0,
        0.48084449768066406,
        0,
        1
      ],
      "name": "Screen1",
      "extras": {
        "name": "Screen1"
      },
      "children": [
        2,
        3,
        4,
        5,
        6,
        7
      ]
    },
    {
      "matrix": [
        0.4853920042514801,
        0,
        0,
        0,
        0,
        0.24127845466136932,
        0,
        0,
        0,
        0,
        0.040213074535131454,
        0,
        0,
        0.19718849658966064,
        0.054186753928661346,
        1
      ],
      "name": "Screen1001",
      "extras": {
        "name": "Screen1.001"
      },
      "mesh": 6
    },
    {
      "matrix": [
        -0.00438667694106698,
        0,
        0,
        0,
        0,
        -0.001065284013748169,
        0,
        0,
        0,
        0,
        -0.00438667694106698,
        0,
        0,
        0.1811506748199463,
        0.0359148308634758,
        1
      ],
      "name": "Walec",
      "extras": {
        "name": "Walec"
      },
      "mesh": 7
    },
    {
      "matrix": [
        -0.01284979097545147,
        0,
        0,
        0,
        0,
        -0.001818377664563675,
        -0.0019132319832129787,
        0,
        0,
        0.009314127197119302,
        -0.008852350895631793,
        0,
        0,
        0.06688666343688965,
        0.032805852591991425,
        1
      ],
      "name": "Walec001",
      "extras": {
        "name": "Walec.001"
      }
    },
    {
      "matrix": [
        -4.7612567492611765e-7,
        0,
        -3.543687041683575,
        0,
        0,
        2.953462936138501,
        0,
        0,
        1.0000001343588565,
        0,
        -1.3435885655173873e-7,
        0,
        -4.5442938804626465,
        0.762014627456665,
        1.5520820617675781,
        1
      ],
      "name": "Gaming_Monitor_-_Samsung_Odysey",
      "extras": {
        "name": "Gaming Monitor - Samsung Odysey"
      },
      "children": [
        0,
        1,
        8,
        9,
        10,
        11
      ]
    },
    {
      "name": "monitorForOldRoom.gltf",
      "children": [
        12
      ]
    }
  ],
  "bufferViews": [
    {
      "buffer": 0,
      "byteOffset": 0,
      "byteLength": 166836,
      "target": 34962,
      "byteStride": 12
    },
    {
      "buffer": 0,
      "byteOffset": 166836,
      "byteLength": 166836,
      "target": 34962,
      "byteStride": 12
    },
    {
      "buffer": 0,
      "byteOffset": 333672,
      "byteLength": 111224,
      "target": 34962,
      "byteStride": 8
    },
    {
      "buffer": 0,
      "byteOffset": 444896,
      "byteLength": 142112,
      "target": 34963
    },
    {
      "buffer": 0,
      "byteOffset": 587008,
      "byteLength": 312,
      "target": 34962,
      "byteStride": 12
    },
    {
      "buffer": 0,
      "byteOffset": 587320,
      "byteLength": 312,
      "target": 34962,
      "byteStride": 12
    },
    {
      "buffer": 0,
      "byteOffset": 587632,
      "byteLength": 208,
      "target": 34962,
      "byteStride": 8
    },
    {
      "buffer": 0,
      "byteOffset": 587840,
      "byteLength": 144,
      "target": 34963
    },
    {
      "buffer": 0,
      "byteOffset": 587984,
      "byteLength": 264,
      "target": 34962,
      "byteStride": 12
    },
    {
      "buffer": 0,
      "byteOffset": 588248,
      "byteLength": 264,
      "target": 34962,
      "byteStride": 12
    },
    {
      "buffer": 0,
      "byteOffset": 588512,
      "byteLength": 176,
      "target": 34962,
      "byteStride": 8
    },
    {
      "buffer": 0,
      "byteOffset": 588688,
      "byteLength": 120,
      "target": 34963
    },
    {
      "buffer": 0,
      "byteOffset": 588808,
      "byteLength": 3264,
      "target": 34962,
      "byteStride": 12
    },
    {
      "buffer": 0,
      "byteOffset": 592072,
      "byteLength": 3264,
      "target": 34962,
      "byteStride": 12
    },
    {
      "buffer": 0,
      "byteOffset": 595336,
      "byteLength": 2176,
      "target": 34962,
      "byteStride": 8
    },
    {
      "buffer": 0,
      "byteOffset": 597512,
      "byteLength": 1584,
      "target": 34963
    },
    {
      "buffer": 0,
      "byteOffset": 599096,
      "byteLength": 5028,
      "target": 34962,
      "byteStride": 12
    },
    {
      "buffer": 0,
      "byteOffset": 604124,
      "byteLength": 5028,
      "target": 34962,
      "byteStride": 12
    },
    {
      "buffer": 0,
      "byteOffset": 609152,
      "byteLength": 3352,
      "target": 34962,
      "byteStride": 8
    },
    {
      "buffer": 0,
      "byteOffset": 612504,
      "byteLength": 2252,
      "target": 34963
    },
    {
      "buffer": 0,
      "byteOffset": 614756,
      "byteLength": 252,
      "target": 34962,
      "byteStride": 12
    },
    {
      "buffer": 0,
      "byteOffset": 615008,
      "byteLength": 252,
      "target": 34962,
      "byteStride": 12
    },
    {
      "buffer": 0,
      "byteOffset": 615260,
      "byteLength": 168,
      "target": 34962,
      "byteStride": 8
    },
    {
      "buffer": 0,
      "byteOffset": 615428,
      "byteLength": 84,
      "target": 34963
    },
    {
      "buffer": 0,
      "byteOffset": 615512,
      "byteLength": 72,
      "target": 34962,
      "byteStride": 12
    },
    {
      "buffer": 0,
      "byteOffset": 615584,
      "byteLength": 72,
      "target": 34962,
      "byteStride": 12
    },
    {
      "buffer": 0,
      "byteOffset": 615656,
      "byteLength": 48,
      "target": 34962,
      "byteStride": 8
    },
    {
      "buffer": 0,
      "byteOffset": 615704,
      "byteLength": 24,
      "target": 34963
    },
    {
      "buffer": 0,
      "byteOffset": 615728,
      "byteLength": 4320,
      "target": 34962,
      "byteStride": 12
    },
    {
      "buffer": 0,
      "byteOffset": 620048,
      "byteLength": 4320,
      "target": 34962,
      "byteStride": 12
    },
    {
      "buffer": 0,
      "byteOffset": 624368,
      "byteLength": 2880,
      "target": 34962,
      "byteStride": 8
    },
    {
      "buffer": 0,
      "byteOffset": 627248,
      "byteLength": 3432,
      "target": 34963
    }
  ],
  "buffers": [
    {
      "byteLength": 630680,
      "uri": "data:application/octet-stream;base64,"
    }
  ],
  "accessors": [
    {
      "bufferView": 0,
      "componentType": 5126,
      "count": 13903,
      "max": [
        1.0077872276306152,
        1.0213942527770996,
        1.7683842182159424
      ],
      "min": [
        -1.0077872276306152,
        -1.0938920974731445,
        -1.2032424211502075
      ],
      "type": "VEC3"
    },
    {
      "bufferView": 1,
      "componentType": 5126,
      "count": 13903,
      "max": [
        1,
        1,
        1
      ],
      "min": [
        -1,
        -1,
        -1
      ],
      "type": "VEC3"
    },
    {
      "bufferView": 2,
      "componentType": 5126,
      "count": 13903,
      "max": [
        1.0000001192092896,
        1
      ],
      "min": [
        -8.938995961216278e-7,
        0
      ],
      "type": "VEC2"
    },
    {
      "bufferView": 3,
      "componentType": 5123,
      "count": 71055,
      "max": [
        13902
      ],
      "min": [
        0
      ],
      "type": "SCALAR"
    },
    {
      "bufferView": 4,
      "componentType": 5126,
      "count": 26,
      "max": [
        0.9805765748023987,
        0.9714536070823669,
        1.585601568222046
      ],
      "min": [
        -0.9805856347084045,
        -0.8994094133377075,
        0.9930562376976013
      ],
      "type": "VEC3"
    },
    {
      "bufferView": 5,
      "componentType": 5126,
      "count": 26,
      "max": [
        0.7537792325019836,
        0.943404495716095,
        0.9778627157211304
      ],
      "min": [
        -0.7544856071472168,
        -0.4575912654399872,
        0.10190047323703766
      ],
      "type": "VEC3"
    },
    {
      "bufferView": 6,
      "componentType": 5126,
      "count": 26,
      "max": [
        0.6216290593147278,
        0.246626615524292
      ],
      "min": [
        0.38100117444992065,
        0.003370225429534912
      ],
      "type": "VEC2"
    },
    {
      "bufferView": 7,
      "componentType": 5123,
      "count": 72,
      "max": [
        25
      ],
      "min": [
        0
      ],
      "type": "SCALAR"
    },
    {
      "bufferView": 8,
      "componentType": 5126,
      "count": 22,
      "max": [
        0.9717658162117004,
        0.9535601139068604,
        1.5029301643371582
      ],
      "min": [
        -0.9717658162117004,
        -0.8994094133377075,
        1
      ],
      "type": "VEC3"
    },
    {
      "bufferView": 9,
      "componentType": 5126,
      "count": 22,
      "max": [
        0.7537792325019836,
        0.7238976955413818,
        0.9638652205467224
      ],
      "min": [
        -0.7544856071472168,
        -0.4575912654399872,
        0.37718382477760315
      ],
      "type": "VEC3"
    },
    {
      "bufferView": 10,
      "componentType": 5126,
      "count": 22,
      "max": [
        0.9999260306358337,
        0.9877578020095825
      ],
      "min": [
        0.0008128434419631958,
        0.008538603782653809
      ],
      "type": "VEC2"
    },
    {
      "bufferView": 11,
      "componentType": 5123,
      "count": 60,
      "max": [
        21
      ],
      "min": [
        0
      ],
      "type": "SCALAR"
    },
    {
      "bufferView": 12,
      "componentType": 5126,
      "count": 272,
      "max": [
        0.6325284242630005,
        0.3534308671951294,
        0.8216019868850708
      ],
      "min": [
        -0.6325305700302124,
        -0.9978305697441101,
        -1.1280275583267212
      ],
      "type": "VEC3"
    },
    {
      "bufferView": 13,
      "componentType": 5126,
      "count": 272,
      "max": [
        0.940428614616394,
        0.7332065105438232,
        0.8029066324234009
      ],
      "min": [
        -0.9403564929962158,
        -1,
        -0.9835947155952454
      ],
      "type": "VEC3"
    },
    {
      "bufferView": 14,
      "componentType": 5126,
      "count": 272,
      "max": [
        0.9900000095367432,
        0.9900000095367432
      ],
      "min": [
        0.4306066632270813,
        0.25
      ],
      "type": "VEC2"
    },
    {
      "bufferView": 15,
      "componentType": 5123,
      "count": 792,
      "max": [
        271
      ],
      "min": [
        0
      ],
      "type": "SCALAR"
    },
    {
      "bufferView": 16,
      "componentType": 5126,
      "count": 419,
      "max": [
        0.45201486349105835,
        0.27913907170295715,
        0.033253490924835205
      ],
      "min": [
        -0.45201486349105835,
        -0.9858078360557556,
        -0.8581029772758484
      ],
      "type": "VEC3"
    },
    {
      "bufferView": 17,
      "componentType": 5126,
      "count": 419,
      "max": [
        1,
        0.6242925524711609,
        1
      ],
      "min": [
        -1,
        -1,
        -1
      ],
      "type": "VEC3"
    },
    {
      "bufferView": 18,
      "componentType": 5126,
      "count": 419,
      "max": [
        0.838416337966919,
        0.8269151449203491
      ],
      "min": [
        0.1901136040687561,
        0.2865836024284363
      ],
      "type": "VEC2"
    },
    {
      "bufferView": 19,
      "componentType": 5123,
      "count": 1125,
      "max": [
        418
      ],
      "min": [
        0
      ],
      "type": "SCALAR"
    },
    {
      "bufferView": 20,
      "componentType": 5126,
      "count": 21,
      "max": [
        0.7878360748291016,
        0.1974864900112152,
        1.184046745300293
      ],
      "min": [
        -0.7879665493965149,
        -1.0454578399658203,
        -0.8551129102706909
      ],
      "type": "VEC3"
    },
    {
      "bufferView": 21,
      "componentType": 5126,
      "count": 21,
      "max": [
        0.9261881709098816,
        0.6373077630996704,
        0.9206231236457825
      ],
      "min": [
        -0.9261407852172852,
        -0.8688234686851501,
        -1
      ],
      "type": "VEC3"
    },
    {
      "bufferView": 22,
      "componentType": 5126,
      "count": 21,
      "max": [
        0.5604850053787231,
        0.6300958395004272
      ],
      "min": [
        0.21284596621990204,
        0.010399043560028076
      ],
      "type": "VEC2"
    },
    {
      "bufferView": 23,
      "componentType": 5123,
      "count": 42,
      "max": [
        20
      ],
      "min": [
        0
      ],
      "type": "SCALAR"
    },
    {
      "bufferView": 24,
      "componentType": 5126,
      "count": 6,
      "max": [
        0.04703749716281891,
        0.019675258547067642,
        0.0013355710543692112
      ],
      "min": [
        -0.04703749716281891,
        -0.019675355404615402,
        -0.010443045757710934
      ],
      "type": "VEC3"
    },
    {
      "bufferView": 25,
      "componentType": 5126,
      "count": 6,
      "max": [
        0.2458970993757248,
        -0.003799955127760768,
        0.9999920129776001
      ],
      "min": [
        -0.2458970993757248,
        -0.003999968059360981,
        0.9692885279655457
      ],
      "type": "VEC3"
    },
    {
      "bufferView": 26,
      "componentType": 5126,
      "count": 6,
      "max": [
        0.9737096428871155,
        0.6231793165206909
      ],
      "min": [
        0.02443993091583252,
        0.37682050466537476
      ],
      "type": "VEC2"
    },
    {
      "bufferView": 27,
      "componentType": 5123,
      "count": 12,
      "max": [
        5
      ],
      "min": [
        0
      ],
      "type": "SCALAR"
    },
    {
      "bufferView": 28,
      "componentType": 5126,
      "count": 360,
      "max": [
        1,
        3.4327328205108643,
        1
      ],
      "min": [
        -1,
        -1,
        -1
      ],
      "type": "VEC3"
    },
    {
      "bufferView": 29,
      "componentType": 5126,
      "count": 360,
      "max": [
        0.9988713264465332,
        0.9195955395698547,
        0.9988713264465332
      ],
      "min": [
        -0.9988713264465332,
        -0.6723286509513855,
        -0.9988713264465332
      ],
      "type": "VEC3"
    },
    {
      "bufferView": 30,
      "componentType": 5126,
      "count": 360,
      "max": [
        1,
        0.9900000095367432
      ],
      "min": [
        0,
        0
      ],
      "type": "VEC2"
    },
    {
      "bufferView": 31,
      "componentType": 5123,
      "count": 1716,
      "max": [
        359
      ],
      "min": [
        0
      ],
      "type": "SCALAR"
    }
  ],
  "materials": [
    {
      "pbrMetallicRoughness": {
        "baseColorFactor": [
          0.005605391621829107,
          0.005605391621829107,
          0.005605391621829107,
          1
        ],
        "metallicFactor": 0,
        "roughnessFactor": 0.4302000105381012
      },
      "doubleSided": true,
      "name": "BlackPlastic",
      "extensions": {
        "KHR_materials_ior": {
          "ior": 1.4500000476837156
        }
      }
    },
    {
      "pbrMetallicRoughness": {
        "baseColorFactor": [
          0,
          0,
          0,
          1
        ],
        "metallicFactor": 0,
        "roughnessFactor": 0.41304346919059753
      },
      "doubleSided": true,
      "name": "Screenoff",
      "extensions": {
        "KHR_materials_ior": {
          "ior": 1.4500000476837156
        },
        "KHR_materials_specular": {
          "specularFactor": 0.7391303777694702,
          "specularColorFactor": [
            1,
            1,
            1
          ]
        }
      }
    },
    {
      "pbrMetallicRoughness": {
        "baseColorFactor": [
          0.9301108583738498,
          0.6795424696265424,
          0.9046611743890203,
          1
        ],
        "metallicFactor": 0,
        "roughnessFactor": 0.9336463809013367
      },
      "emissiveFactor": [
        0.2788942634659966,
        0.3371636150376657,
        0.4019777798219466
      ],
      "doubleSided": true,
      "name": "ScreenOn",
      "extensions": {
        "KHR_materials_ior": {
          "ior": 1.4500000476837156
        },
        "KHR_materials_specular": {
          "specularFactor": 0.04866684973239899,
          "specularColorFactor": [
            1,
            1,
            1
          ]
        }
      }
    },
    {
      "pbrMetallicRoughness": {
        "baseColorFactor": [
          0.4286904966038916,
          0.4286904966038916,
          0.7991027380100881,
          1
        ],
        "metallicFactor": 0,
        "roughnessFactor": 0.5
      },
      "emissiveFactor": [
        0.012983032338510335,
        0,
        1
      ],
      "doubleSided": true,
      "name": "NeonBlue",
      "extensions": {
        "KHR_materials_emissive_strength": {
          "emissiveStrength": 1.7800109386444092
        }
      }
    },
    {
      "pbrMetallicRoughness": {
        "baseColorFactor": [
          0.6172065624120635,
          0.6172065624120635,
          0.6172065624120635,
          1
        ],
        "metallicFactor": 0.7560975551605225,
        "roughnessFactor": 0.38501742482185364
      },
      "doubleSided": true,
      "name": "Metal.001",
      "extensions": {
        "KHR_materials_ior": {
          "ior": 1.4500000476837156
        }
      }
    },
    {
      "pbrMetallicRoughness": {
        "baseColorFactor": [
          0.024157632443547246,
          0.024157632443547246,
          0.024157632443547246,
          1
        ],
        "metallicFactor": 0.038327526301145554,
        "roughnessFactor": 0.7822299599647522
      },
      "doubleSided": true,
      "name": "Rubber",
      "extensions": {
        "KHR_materials_ior": {
          "ior": 1.4500000476837156
        },
        "KHR_materials_specular": {
          "specularFactor": 0.5679442882537842,
          "specularColorFactor": [
            1,
            1,
            1
          ]
        }
      }
    },
    {
      "pbrMetallicRoughness": {
        "metallicFactor": 0,
        "roughnessFactor": 0.5,
        "baseColorTexture": {
          "index": 0,
          "texCoord": 0
        }
      },
      "alphaMode": "BLEND",
      "doubleSided": true,
      "name": "logo.001"
    }
  ],
  "meshes": [
    {
      "primitives": [
        {
          "mode": 4,
          "attributes": {
            "POSITION": 0,
            "NORMAL": 1,
            "TEXCOORD_0": 2
          },
          "indices": 3,
          "material": 0
        }
      ]
    },
    {
      "primitives": [
        {
          "mode": 4,
          "attributes": {
            "POSITION": 4,
            "NORMAL": 5,
            "TEXCOORD_0": 6
          },
          "indices": 7,
          "material": 1
        }
      ]
    },
    {
      "primitives": [
        {
          "mode": 4,
          "attributes": {
            "POSITION": 8,
            "NORMAL": 9,
            "TEXCOORD_0": 10
          },
          "indices": 11,
          "material": 2
        }
      ]
    },
    {
      "primitives": [
        {
          "mode": 4,
          "attributes": {
            "POSITION": 12,
            "NORMAL": 13,
            "TEXCOORD_0": 14
          },
          "indices": 15,
          "material": 3
        }
      ]
    },
    {
      "primitives": [
        {
          "mode": 4,
          "attributes": {
            "POSITION": 16,
            "NORMAL": 17,
            "TEXCOORD_0": 18
          },
          "indices": 19,
          "material": 4
        }
      ]
    },
    {
      "primitives": [
        {
          "mode": 4,
          "attributes": {
            "POSITION": 20,
            "NORMAL": 21,
            "TEXCOORD_0": 22
          },
          "indices": 23,
          "material": 5
        }
      ]
    },
    {
      "primitives": [
        {
          "mode": 4,
          "attributes": {
            "POSITION": 24,
            "NORMAL": 25,
            "TEXCOORD_0": 26
          },
          "indices": 27,
          "material": 6
        }
      ]
    },
    {
      "primitives": [
        {
          "mode": 4,
          "attributes": {
            "POSITION": 28,
            "NORMAL": 29,
            "TEXCOORD_0": 30
          },
          "indices": 31,
          "material": 0
        }
      ]
    }
  ],
  "textures": [
    {
      "sampler": 0,
      "source": 0,
      "name": "samsung-logo-text-png-1"
    }
  ],
  "samplers": [
    {
      "magFilter": 9729,
      "minFilter": 9987,
      "wrapS": 10497,
      "wrapT": 10497
    }
  ],
  "images": [
    {
      "mimeType": "image/png",
      "uri": "data:image/png;base64,"
    }
  ],
  "extensionsUsed": [
    "KHR_materials_ior",
    "KHR_materials_specular",
    "KHR_materials_emissive_strength"
  ]
}